<svg class="svg-icon" style="width: 1em; height: 1em;vertical-align: middle;fill: currentColor;overflow: hidden;" viewBox="0 0 1024 1024" version="1.1" xmlns="http://www.w3.org/2000/svg"><path d="M628.363636 512c-62.836364-58.181818-125.672727-114.036364-186.181818-169.890909-32.581818-27.927273-62.836364-58.181818-95.418182-86.109091-13.963636-13.963636-16.290909-25.6-6.981818-37.236364 9.309091-11.636364 23.272727-11.636364 39.563637 2.327273 95.418182 86.109091 188.509091 172.218182 283.927272 258.327273 4.654545 4.654545 11.636364 9.309091 16.290909 13.963636 11.636364 9.309091 11.636364 27.927273 0 39.563637l-223.418181 202.472727c-25.6 23.272727-53.527273 48.872727-79.127273 72.145454-13.963636 11.636364-30.254545 11.636364-37.236364-2.327272-6.981818-11.636364-4.654545-23.272727 9.309091-34.909091 67.490909-62.836364 134.981818-123.345455 202.472727-186.181818 25.6-25.6 51.2-46.545455 76.8-72.145455z"  /></svg>