<?xml version="1.0" encoding="utf-8"?><svg version="1.1" id="Layer_1" xmlns="http://www.w3.org/2000/svg" xmlns:xlink="http://www.w3.org/1999/xlink" x="0px" y="0px" viewBox="0 0 122.88 122.72" style="enable-background:new 0 0 122.88 122.72" xml:space="preserve"><style type="text/css">.st0{fill-rule:evenodd;clip-rule:evenodd;}</style><g><path class="st0" d="M89.34,46.85L76.2,49.97c-2.85-7.47-7.61-11.23-14.29-11.23c-5.12,0-9.15,1.97-12.05,5.94 c-2.93,3.94-4.38,9.23-4.38,15.8c0,5.17,0.6,9.56,1.83,13.12c1.23,3.56,3.04,6.21,5.42,8.02c2.38,1.78,5.23,2.68,8.54,2.68 c7.37,0,12.4-4.6,15.09-13.8l12.98,4.41C85.07,88.82,75.6,95.78,60.95,95.78c-5.23,0-10.13-1.29-14.65-3.86 c-4.52-2.55-8.13-6.46-10.87-11.69c-2.71-5.26-4.08-11.5-4.08-18.78c0-6.79,1.26-12.73,3.78-17.85c2.49-5.09,6.11-9.06,10.79-11.91 c4.68-2.82,10.16-4.24,16.48-4.24C75.65,27.43,84.63,33.9,89.34,46.85L89.34,46.85z M61.44,0c8.38,0,16.32,1.56,23.79,4.68 c7.45,3.15,14.02,7.56,19.71,13.25c5.7,5.69,10.1,12.27,13.25,19.71c3.12,7.47,4.68,15.39,4.68,23.79c0,11.01-2.77,21.25-8.3,30.67 c-5.53,9.45-13.01,16.92-22.42,22.4c-9.42,5.48-19.66,8.21-30.72,8.21c-11.23,0-21.55-2.74-30.91-8.19 c-9.39-5.45-16.84-12.9-22.31-22.34C2.74,82.77,0,72.5,0,61.44c0-11.12,2.74-21.41,8.21-30.83c5.48-9.45,12.95-16.92,22.4-22.4 C40.03,2.74,50.32,0,61.44,0L61.44,0z M61.44,12.05c-9.04,0-17.33,2.22-24.83,6.65c-7.5,4.44-13.47,10.43-17.88,17.99 c-4.41,7.58-6.63,15.83-6.63,24.75c0,8.98,2.22,17.22,6.63,24.72c4.41,7.53,10.38,13.47,17.91,17.88 c7.56,4.41,15.8,6.63,24.81,6.63c8.93,0,17.17-2.19,24.78-6.57c7.58-4.38,13.58-10.32,17.99-17.85c4.41-7.5,6.63-15.77,6.63-24.81 c0-8.87-2.22-17.11-6.65-24.7c-4.44-7.58-10.43-13.61-18.02-18.04C78.61,14.27,70.37,12.05,61.44,12.05L61.44,12.05z"/></g></svg>