<?xml version="1.0" encoding="iso-8859-1"?>
<!-- Generator: Adobe Illustrator 18.0.0, SVG Export Plug-In . SVG Version: 6.00 Build 0)  -->
<!DOCTYPE svg PUBLIC "-//W3C//DTD SVG 1.1//EN" "http://www.w3.org/Graphics/SVG/1.1/DTD/svg11.dtd">
<svg version="1.1" id="Capa_1" xmlns="http://www.w3.org/2000/svg" xmlns:xlink="http://www.w3.org/1999/xlink" x="0px" y="0px"
	 viewBox="0 0 297.004 297.004" style="enable-background:new 0 0 297.004 297.004;" xml:space="preserve">
<path d="M286.832,142.98h-12.218l-17.449-52.677c-1.381-4.162-5.27-6.974-9.655-6.974h-29.557V34.754
	c0-5.616-4.555-10.17-10.172-10.17H10.172C4.555,24.584,0,29.138,0,34.754v178.043c0,5.617,4.555,10.171,10.172,10.171h9.83
	c-0.159,1.534-0.242,3.088-0.242,4.665c0,24.695,20.077,44.787,44.756,44.787c24.676,0,44.749-20.092,44.749-44.787
	c0-1.577-0.083-3.131-0.242-4.665h88.83c-0.158,1.534-0.242,3.088-0.242,4.665c0,24.695,20.077,44.787,44.759,44.787
	c24.676,0,44.752-20.092,44.752-44.787c0-1.578-0.083-3.132-0.243-4.667c5.595-0.025,10.126-4.567,10.126-10.169v-59.646
	C297.004,147.536,292.449,142.98,286.832,142.98z M240.163,103.672l13.02,39.309h-35.23v-39.309H240.163z M64.516,252.077
	c-13.461,0-24.413-10.966-24.413-24.444c0-13.48,10.952-24.445,24.413-24.445c13.458,0,24.407,10.965,24.407,24.445
	C88.923,241.111,77.974,252.077,64.516,252.077z M197.61,202.625h-95.987c-8.048-11.925-21.678-19.782-37.107-19.782
	c-15.433,0-29.065,7.857-37.114,19.782h-7.058V44.927H197.61V202.625z M242.369,252.077c-13.464,0-24.416-10.966-24.416-24.444
	c0-13.48,10.952-24.445,24.416-24.445c13.459,0,24.41,10.965,24.41,24.445C266.779,241.111,255.828,252.077,242.369,252.077z
	 M242.369,182.843c-9.004,0-17.387,2.685-24.416,7.279v-26.799h49.315h9.392v35.571
	C268.444,189.091,256.123,182.843,242.369,182.843z"/>
<g>
</g>
<g>
</g>
<g>
</g>
<g>
</g>
<g>
</g>
<g>
</g>
<g>
</g>
<g>
</g>
<g>
</g>
<g>
</g>
<g>
</g>
<g>
</g>
<g>
</g>
<g>
</g>
<g>
</g>
</svg>
