<svg xmlns="http://www.w3.org/2000/svg" xmlns:xlink="http://www.w3.org/1999/xlink" version="1.1" width="256" height="256" viewBox="0 0 256 256" xml:space="preserve">

<defs>
</defs>
<g style="stroke: none; stroke-width: 0; stroke-dasharray: none; stroke-linecap: butt; stroke-linejoin: miter; stroke-miterlimit: 10; fill: none; fill-rule: nonzero; opacity: 1;" transform="translate(1.4065934065934016 1.4065934065934016) scale(2.81 2.81)" >
	<path d="M 16.658 34.132 c -0.085 0 -0.171 -0.003 -0.257 -0.011 c -0.931 -0.08 -1.772 -0.589 -2.274 -1.378 l -5.479 -8.609 c -0.89 -1.398 -0.478 -3.252 0.92 -4.142 c 1.399 -0.89 3.253 -0.478 4.142 0.92 l 3.371 5.296 l 13.642 -14.996 c 1.114 -1.225 3.013 -1.315 4.238 -0.201 c 1.226 1.115 1.315 3.012 0.201 4.238 L 18.877 33.151 C 18.306 33.779 17.499 34.132 16.658 34.132 z" style="stroke: none; stroke-width: 1; stroke-dasharray: none; stroke-linecap: butt; stroke-linejoin: miter; stroke-miterlimit: 10; fill: rgb(0,0,0); fill-rule: nonzero; opacity: 1;" transform=" matrix(1 0 0 1 0 0) " stroke-linecap="round" />
	<path d="M 29.854 41.731 H 3 c -1.657 0 -3 -1.343 -3 -3 V 13.605 c 0 -1.657 1.343 -3 3 -3 h 16.137 c 1.657 0 3 1.343 3 3 s -1.343 3 -3 3 H 6 v 19.126 h 20.854 v -3.909 c 0 -1.657 1.343 -3 3 -3 s 3 1.343 3 3 v 6.909 C 32.854 40.388 31.511 41.731 29.854 41.731 z" style="stroke: none; stroke-width: 1; stroke-dasharray: none; stroke-linecap: butt; stroke-linejoin: miter; stroke-miterlimit: 10; fill: rgb(0,0,0); fill-rule: nonzero; opacity: 1;" transform=" matrix(1 0 0 1 0 0) " stroke-linecap="round" />
	<path d="M 87 22.93 H 42.421 c -1.657 0 -3 -1.343 -3 -3 s 1.343 -3 3 -3 H 87 c 1.657 0 3 1.343 3 3 S 88.657 22.93 87 22.93 z" style="stroke: none; stroke-width: 1; stroke-dasharray: none; stroke-linecap: butt; stroke-linejoin: miter; stroke-miterlimit: 10; fill: rgb(0,0,0); fill-rule: nonzero; opacity: 1;" transform=" matrix(1 0 0 1 0 0) " stroke-linecap="round" />
	<path d="M 75.264 35.033 H 42.421 c -1.657 0 -3 -1.343 -3 -3 s 1.343 -3 3 -3 h 32.843 c 1.657 0 3 1.343 3 3 S 76.921 35.033 75.264 35.033 z" style="stroke: none; stroke-width: 1; stroke-dasharray: none; stroke-linecap: butt; stroke-linejoin: miter; stroke-miterlimit: 10; fill: rgb(0,0,0); fill-rule: nonzero; opacity: 1;" transform=" matrix(1 0 0 1 0 0) " stroke-linecap="round" />
	<path d="M 16.658 72.171 c -0.085 0 -0.171 -0.004 -0.257 -0.011 c -0.931 -0.08 -1.772 -0.59 -2.274 -1.379 l -5.479 -8.609 c -0.889 -1.397 -0.477 -3.252 0.921 -4.142 c 1.397 -0.889 3.251 -0.477 4.142 0.921 l 3.37 5.297 l 13.642 -14.997 c 1.114 -1.227 3.013 -1.316 4.238 -0.2 c 1.226 1.114 1.315 3.012 0.201 4.237 L 18.877 71.189 C 18.306 71.817 17.499 72.171 16.658 72.171 z" style="stroke: none; stroke-width: 1; stroke-dasharray: none; stroke-linecap: butt; stroke-linejoin: miter; stroke-miterlimit: 10; fill: rgb(0,0,0); fill-rule: nonzero; opacity: 1;" transform=" matrix(1 0 0 1 0 0) " stroke-linecap="round" />
	<path d="M 29.854 79.769 H 3 c -1.657 0 -3 -1.343 -3 -3 V 51.643 c 0 -1.657 1.343 -3 3 -3 h 16.137 c 1.657 0 3 1.343 3 3 s -1.343 3 -3 3 H 6 v 19.126 h 20.854 V 69.86 c 0 -1.657 1.343 -3 3 -3 s 3 1.343 3 3 v 6.908 C 32.854 78.426 31.511 79.769 29.854 79.769 z" style="stroke: none; stroke-width: 1; stroke-dasharray: none; stroke-linecap: butt; stroke-linejoin: miter; stroke-miterlimit: 10; fill: rgb(0,0,0); fill-rule: nonzero; opacity: 1;" transform=" matrix(1 0 0 1 0 0) " stroke-linecap="round" />
	<path d="M 87 60.968 H 42.421 c -1.657 0 -3 -1.343 -3 -3 s 1.343 -3 3 -3 H 87 c 1.657 0 3 1.343 3 3 S 88.657 60.968 87 60.968 z" style="stroke: none; stroke-width: 1; stroke-dasharray: none; stroke-linecap: butt; stroke-linejoin: miter; stroke-miterlimit: 10; fill: rgb(0,0,0); fill-rule: nonzero; opacity: 1;" transform=" matrix(1 0 0 1 0 0) " stroke-linecap="round" />
	<path d="M 75.264 73.07 H 42.421 c -1.657 0 -3 -1.343 -3 -3 s 1.343 -3 3 -3 h 32.843 c 1.657 0 3 1.343 3 3 S 76.921 73.07 75.264 73.07 z" style="stroke: none; stroke-width: 1; stroke-dasharray: none; stroke-linecap: butt; stroke-linejoin: miter; stroke-miterlimit: 10; fill: rgb(0,0,0); fill-rule: nonzero; opacity: 1;" transform=" matrix(1 0 0 1 0 0) " stroke-linecap="round" />
</g>
</svg>